<svg xmlns="http://www.w3.org/2000/svg" viewBox="0 0 100 100" width="100" height="100" shape-rendering="geometricPrecision">
<defs>
  <radialGradient id="bgg" cx="38%" cy="32%" r="68%">
    <stop offset="0%" stop-color="#6366f1"/>
    <stop offset="100%" stop-color="#3730a3"/>
  </radialGradient>
  <radialGradient id="glow2" cx="50%" cy="50%" r="50%">
    <stop offset="0%" stop-color="#ffffff" stop-opacity="0.14"/>
    <stop offset="100%" stop-color="#ffffff" stop-opacity="0"/>
  </radialGradient>
  <clipPath id="rr">
    <rect width="100" height="100" rx="22"/>
  </clipPath>
</defs>

<rect width="100" height="100" rx="22" fill="url(#bgg)"/>
<rect width="100" height="100" rx="22" fill="url(#glow2)"/>

<g clip-path="url(#rr)" fill="none" stroke="#ffffff" stroke-linecap="round" stroke-linejoin="round">

  <path d="M 42.6 38.2 L 33.8 61.8 Q 31.6 67.3 35.3 70 Q 39 72.5 50 72.5 Q 61 72.5 64.7 70 Q 68.4 67.3 66.2 61.8 L 57.4 38.2 Z"
        fill="#ffffff" fill-opacity="0.18" stroke="#ffffff" stroke-width="2.6"/>

  <rect x="41.8" y="27.2" width="16.4" height="12" rx="1.8"
        fill="#ffffff" fill-opacity="0.18" stroke="#ffffff" stroke-width="2.6"/>

  <rect x="40" y="25.7" width="20" height="3.2" rx="1.6"
        fill="#ffffff" stroke="#ffffff" stroke-width="0.8"/>

  <circle cx="44.8" cy="61.8" r="2.6" fill="#ffffff" fill-opacity="0.5" stroke="none"/>
  <circle cx="52"   cy="65.4" r="1.8" fill="#ffffff" fill-opacity="0.38" stroke="none"/>
  <circle cx="57.4" cy="61.2" r="1.3" fill="#ffffff" fill-opacity="0.32" stroke="none"/>

  <path d="M 36 63.5 Q 43 61.2 50 62.2 Q 57 63.4 64 61.5"
        fill="none" stroke="#ffffff" stroke-width="1" stroke-opacity="0.45"/>

  <path d="M 26.2 44 L 18.8 50 L 26.2 56"
        fill="none" stroke="#ffffff" stroke-width="3.2" stroke-linecap="round" stroke-linejoin="round"/>

  <path d="M 73.8 44 L 81.2 50 L 73.8 56"
        fill="none" stroke="#ffffff" stroke-width="3.2" stroke-linecap="round" stroke-linejoin="round"/>

  <line x1="58.2" y1="30.8" x2="73.5" y2="30.8" stroke="#ffffff" stroke-width="1.5" stroke-opacity="0.9"/>
  <line x1="73.5" y1="30.8" x2="73.5" y2="23.5" stroke="#ffffff" stroke-width="1.5" stroke-opacity="0.9"/>
  <line x1="73.5" y1="23.5" x2="80.5" y2="23.5" stroke="#ffffff" stroke-width="1.5" stroke-opacity="0.9"/>

  <circle cx="73.5" cy="30.8" r="2"   fill="#ffffff" stroke="none"/>
  <circle cx="73.5" cy="23.5" r="2"   fill="#ffffff" stroke="none"/>
  <circle cx="80.5" cy="23.5" r="1.4" fill="#ffffff" fill-opacity="0.6" stroke="#ffffff" stroke-width="0.9"/>

</g>
</svg>
